<?xml version="1.0" encoding="UTF-8" standalone="no"?>
<!DOCTYPE svg PUBLIC "-//W3C//DTD SVG 1.1//EN" "http://www.w3.org/Graphics/SVG/1.1/DTD/svg11.dtd">
<svg width="100%" height="100%" viewBox="0 0 3544 3544" version="1.1" xmlns="http://www.w3.org/2000/svg" xmlns:xlink="http://www.w3.org/1999/xlink" xml:space="preserve" xmlns:serif="http://www.serif.com/" style="fill-rule:evenodd;clip-rule:evenodd;stroke-linecap:round;stroke-linejoin:round;stroke-miterlimit:1.5;">
    <g id="OctoDark" transform="matrix(1,0,0,1,0,-20.185073)">
        <path d="M177.165,2484.652L177.165,2051.582C177.165,1926.64 278.602,1825.204 403.543,1825.204C528.485,1825.204 629.921,1926.64 629.921,2051.582L629.921,2258.274L954.216,2258.274C871.28,2172.633 820.21,2055.952 820.21,1927.437L820.21,741.911L821.151,741.911C821.348,738.773 821.575,735.643 821.832,732.521C820.759,720.586 820.21,708.5 820.21,696.287C820.21,475.546 999.424,296.332 1220.165,296.332L2323.142,296.332C2543.883,296.332 2723.097,475.546 2723.097,696.287C2723.097,708.5 2722.549,720.586 2721.475,732.521C2721.732,735.643 2721.959,738.773 2722.156,741.911L3188.976,741.911C3286.757,741.911 3366.142,821.296 3366.142,919.076C3366.142,1016.857 3286.757,1096.242 3188.976,1096.242L2723.097,1096.242L2723.097,1927.437C2723.097,2055.952 2672.027,2172.633 2589.091,2258.274L2913.386,2258.274L2913.386,2051.582C2913.386,1926.64 3014.822,1825.204 3139.764,1825.204C3264.705,1825.204 3366.142,1926.64 3366.142,2051.582L3366.142,2484.652C3366.142,2609.594 3264.705,2711.03 3139.764,2711.03L2383.185,2711.03L2383.185,2822.426L2858.907,2822.426C2983.848,2822.426 3085.285,2923.863 3085.285,3048.804C3085.285,3173.746 2983.848,3275.182 2858.907,3275.182L2131.214,3275.182C2123.428,3275.844 2115.551,3276.182 2107.595,3276.182C2099.639,3276.182 2091.761,3275.844 2083.975,3275.182L2058.382,3275.182C1933.441,3275.182 1832.004,3173.746 1832.004,3048.804C1832.004,3041.069 1832.393,3033.425 1833.152,3025.889C1832.392,3017.557 1832.004,3009.119 1832.004,3000.592L1832.004,2711.03L1711.303,2711.03L1711.303,3011.255C1711.303,3019.962 1710.898,3028.575 1710.107,3037.076C1710.898,3044.766 1711.303,3052.57 1711.303,3060.467C1711.303,3185.409 1609.866,3286.845 1484.925,3286.845L684.4,3286.845C559.459,3286.845 458.022,3185.409 458.022,3060.467C458.022,2935.526 559.459,2834.089 684.4,2834.089L1160.122,2834.089L1160.122,2711.03L403.543,2711.03C278.602,2711.03 177.165,2609.594 177.165,2484.652ZM2222.769,1992.526C2222.769,1912.853 2158.085,1848.169 2078.412,1848.169L1464.895,1848.169C1385.222,1848.169 1320.538,1912.853 1320.538,1992.526C1320.538,2072.199 1385.222,2136.883 1464.895,2136.883L2078.412,2136.883C2158.085,2136.883 2222.769,2072.199 2222.769,1992.526ZM1367.495,1171.701C1220.825,1171.701 1101.747,1290.779 1101.747,1437.449C1101.747,1584.119 1220.825,1703.197 1367.495,1703.197C1514.165,1703.197 1633.243,1584.119 1633.243,1437.449C1633.243,1290.779 1514.165,1171.701 1367.495,1171.701ZM2222.769,1171.701C2076.099,1171.701 1957.021,1290.779 1957.021,1437.449C1957.021,1584.119 2076.099,1703.197 2222.769,1703.197C2369.439,1703.197 2488.517,1584.119 2488.517,1437.449C2488.517,1290.779 2369.439,1171.701 2222.769,1171.701Z" style="fill:none;stroke:#f4f4f4;stroke-width:145.83px;"/>
    </g>
</svg>
