<?xml version="1.0" encoding="UTF-8" standalone="no"?>
<!DOCTYPE svg PUBLIC "-//W3C//DTD SVG 1.1//EN" "http://www.w3.org/Graphics/SVG/1.1/DTD/svg11.dtd">
<svg width="100%" height="100%" viewBox="0 0 3544 3544" version="1.1" xmlns="http://www.w3.org/2000/svg" xmlns:xlink="http://www.w3.org/1999/xlink" xml:space="preserve" xmlns:serif="http://www.serif.com/" style="fill-rule:evenodd;clip-rule:evenodd;stroke-linecap:round;stroke-linejoin:round;stroke-miterlimit:1.5;">
    <g transform="matrix(1.393762,0,0,1.393762,-639.057244,-640.21702)">
        <path d="M1212.917,2073.866C945.301,2016.329 748.031,1820.444 748.031,1587.926C748.031,1310.279 1029.31,1084.864 1375.766,1084.864C1423.334,1084.864 1469.674,1089.114 1514.226,1097.164C1554.211,1017.362 1610.586,944.203 1682.923,882.964C1970.729,639.309 2402.92,675.995 2647.452,964.837C2891.984,1253.679 2856.851,1685.998 2569.045,1929.653C2483.299,2002.245 2432.856,2076.2 2330.259,2099.77C2353.735,2161.011 2318.46,2201.093 2318.46,2270.341C2318.46,2579.375 2062.664,2830.271 1747.594,2830.271C1432.525,2830.271 1176.728,2579.375 1176.728,2270.341C1176.728,2201.222 1189.524,2135.011 1212.917,2073.866Z" style="fill:white;"/>
    </g>
    <g transform="matrix(1.299094,0,0,0.986346,-666.28781,-21.810552)">
        <path d="M717.41,1389.094C731.315,1392.136 1277.706,1218.602 1567.946,2147.372C1685.483,2523.489 1624.467,2982.294 1360.455,3167.104C1309.249,3202.948 1315.702,3209.166 1259.842,3237.095" style="fill:none;stroke:rgb(166,101,255);stroke-width:361.26px;"/>
    </g>
    <g transform="matrix(1.393762,0,0,1.393762,-764.393479,-578.19177)">
        <path d="M1951.007,586.177C1619.884,883.339 1631.577,1138.69 1863.517,1447.944C1979.791,1602.976 2399.834,1607.123 2445.319,1334.208C2461.97,1234.306 2342.035,1115.826 2265.967,1089.239C1914.865,966.522 1623.924,1392.491 1867.891,1701.662C2319.12,2273.488 2709.223,2026.536 2897.63,1995.134" style="fill:none;stroke:rgb(120,163,255);stroke-width:298.95px;"/>
    </g>
</svg>
